<?xml version="1.0" standalone="no"?>
<!DOCTYPE svg PUBLIC "-//W3C//DTD SVG 20010904//EN"
        "http://www.w3.org/TR/2001/REC-SVG-20010904/DTD/svg10.dtd">
<svg version="1.0" xmlns="http://www.w3.org/2000/svg"
     width="1024pt" height="1024pt" viewBox="0 0 1024 1024"
     preserveAspectRatio="xMidYMid meet">

    <g transform="translate(0,1024) scale(0.1,-0.1)" stroke="none">
        <!-- Cercle de fond blanc -->
        <circle cx="5120" cy="5120" r="5000" fill="#FFFFFF"/>

        <!-- D (bleu) -->
        <path fill="#275AFE" d="M1740 5215 l0 -1975 643 0 c614 0 844 7 987 31 198 33 389 99 572
    197 166 88 280 174 423 317 287 286 451 631 521 1095 22 143 25 500 5 640 -35
    254 -100 479 -191 660 -47 94 -154 261 -208 325 -286 341 -656 565 -1064 644
    -180 35 -338 41 -1024 41 l-664 0 0 -1975z m1469 1209 c239 -35 433 -135 598
    -307 150 -157 240 -335 288 -566 51 -245 35 -604 -36 -821 -106 -323 -355
    -574 -669 -674 -167 -53 -207 -58 -537 -63 l-313 -5 0 1226 0 1226 281 0 c204
    0 311 -4 388 -16z"/>

        <!-- M (noir) -->
        <path fill="#000000" d="M4840 6763 l0 -428 29 -80 c16 -44 44 -118 61 -165 50 -136 98 -323
    122 -474 26 -170 31 -554 10 -726 -31 -245 -96 -494 -171 -649 l-36 -76 -5
    -463 -5 -462 413 0 412 0 0 1241 0 1242 26 -39 c15 -21 127 -181 249 -354 122
    -173 353 -503 514 -732 l292 -418 537 767 537 767 3 -1237 2 -1237 398 0 397
    0 -3 1975 -2 1975 -384 0 -385 0 -136 -202 c-449 -668 -957 -1413 -963 -1415
    -4 -1 -36 41 -72 95 -36 53 -247 363 -470 687 -223 325 -443 645 -489 713
    l-83 122 -399 0 -399 0 0 -427z"/>
    </g>
</svg>
