<?xml version="1.0" standalone="no"?>
<!DOCTYPE svg PUBLIC "-//W3C//DTD SVG 20010904//EN"
 "http://www.w3.org/TR/2001/REC-SVG-20010904/DTD/svg10.dtd">
<svg version="1.0" xmlns="http://www.w3.org/2000/svg"
 width="96.000000pt" height="96.000000pt" viewBox="0 0 96.000000 96.000000"
 preserveAspectRatio="xMidYMid meet">

<g transform="translate(0.000000,96.000000) scale(0.100000,-0.100000)"
fill="#000000" stroke="none">
<path d="M395 791 c-130 -60 -165 -225 -70 -329 l33 -36 -44 -28 c-54 -34
-100 -96 -119 -161 -22 -75 -20 -87 15 -87 21 0 30 5 30 16 0 47 28 102 75
149 52 53 102 75 169 75 109 0 206 99 206 210 0 150 -160 253 -295 191z m151
-57 c108 -52 109 -210 2 -265 -107 -55 -229 28 -215 147 11 104 118 163 213
118z"/>
<path d="M720 390 c0 -23 -6 -33 -25 -42 -21 -10 -29 -8 -48 11 l-24 21 -18
-20 c-18 -20 -18 -21 2 -41 18 -18 19 -25 10 -50 -9 -24 -17 -29 -44 -29 -30
0 -33 -3 -33 -30 0 -27 3 -30 30 -30 23 0 33 -6 42 -25 10 -22 8 -29 -13 -51
l-24 -25 25 -19 c24 -18 25 -18 46 1 17 16 26 18 47 10 21 -8 27 -17 27 -41 0
-27 3 -30 30 -30 27 0 30 3 30 30 0 23 6 33 25 42 21 10 29 8 48 -11 l24 -21
18 20 c18 20 18 21 -2 41 -18 18 -19 25 -10 50 9 24 17 29 44 29 30 0 33 3 33
30 0 27 -3 30 -30 30 -23 0 -33 6 -42 25 -10 22 -8 29 12 50 l24 25 -22 22
-22 22 -23 -22 c-20 -19 -28 -21 -50 -13 -21 8 -27 17 -27 41 0 27 -3 30 -30
30 -27 0 -30 -3 -30 -30z m91 -119 c20 -20 29 -39 29 -61 0 -43 -47 -90 -90
-90 -43 0 -90 47 -90 90 0 43 47 90 90 90 22 0 41 -9 61 -29z"/>
<path d="M730 224 c-11 -12 -10 -18 3 -32 16 -15 18 -15 34 0 13 14 14 20 3
32 -7 9 -16 16 -20 16 -4 0 -13 -7 -20 -16z"/>
</g>
</svg>
