<?xml version="1.0" standalone="no"?>
<!DOCTYPE svg PUBLIC "-//W3C//DTD SVG 20010904//EN"
 "http://www.w3.org/TR/2001/REC-SVG-20010904/DTD/svg10.dtd">
<svg version="1.0" xmlns="http://www.w3.org/2000/svg"
 width="710.000000pt" height="579.000000pt" viewBox="0 0 710.000000 579.000000"
 preserveAspectRatio="xMidYMid meet">

<g transform="translate(0.000000,579.000000) scale(0.100000,-0.100000)"
fill="#000000" stroke="none">
<path d="M5647 5203 c-3 -5 -152 -507 -331 -1118 -180 -610 -330 -1120 -334
-1133 -7 -21 -52 33 -377 443 -244 309 -374 465 -384 463 -9 -2 -17 -13 -19
-24 -4 -26 -1390 -1570 -1405 -1566 -6 2 -240 111 -520 243 -280 132 -513 239
-519 237 -16 -6 -1411 -2320 -1412 -2343 -1 -13 5 -20 18 -20 14 0 185 275
712 1149 381 631 695 1150 697 1153 5 5 995 -461 1010 -476 21 -21 55 -12 70
17 9 20 1175 1328 1371 1540 10 10 89 -85 381 -453 202 -256 374 -465 381
-465 7 0 15 4 18 8 15 24 686 2327 682 2338 -6 15 -32 19 -39 7z"/>
</g>
</svg>
