<?xml version="1.0" standalone="no"?>
<!DOCTYPE svg PUBLIC "-//W3C//DTD SVG 20010904//EN"
 "http://www.w3.org/TR/2001/REC-SVG-20010904/DTD/svg10.dtd">
<svg version="1.0" xmlns="http://www.w3.org/2000/svg"
 width="512.000000pt" height="512.000000pt" viewBox="0 0 512.000000 512.000000"
 preserveAspectRatio="xMidYMid meet">

<g transform="translate(0.000000,512.000000) scale(0.100000,-0.100000)"
fill="#000000" stroke="none">
<path d="M521 4944 c-169 -45 -301 -180 -346 -351 -23 -86 -22 -1421 0 -1508
47 -178 197 -321 374 -355 72 -13 1389 -14 1462 0 183 34 344 195 379 379 14
73 14 1389 0 1462 -34 177 -177 327 -355 374 -85 22 -1431 21 -1514 -1z m1485
-330 c15 -11 37 -33 48 -48 21 -27 21 -36 21 -726 0 -690 0 -699 -21 -726 -11
-15 -33 -37 -48 -48 -27 -21 -36 -21 -726 -21 -690 0 -699 0 -726 21 -15 11
-37 33 -48 48 -21 27 -21 39 -24 699 -2 370 0 686 3 704 7 40 49 91 90 109 24
11 161 13 717 11 676 -2 687 -2 714 -23z"/>
<path d="M3081 4944 c-169 -45 -301 -180 -346 -351 -23 -86 -22 -1421 0 -1508
47 -178 197 -321 374 -355 72 -13 1389 -14 1462 0 183 34 344 195 379 379 14
73 14 1389 0 1462 -34 177 -177 327 -355 374 -85 22 -1431 21 -1514 -1z m1485
-330 c15 -11 37 -33 48 -48 21 -27 21 -36 21 -726 0 -690 0 -699 -21 -726 -11
-15 -33 -37 -48 -48 -27 -21 -36 -21 -726 -21 -690 0 -699 0 -726 21 -15 11
-37 33 -48 48 -21 27 -21 39 -24 699 -2 370 0 686 3 704 7 40 49 91 90 109 24
11 161 13 717 11 676 -2 687 -2 714 -23z"/>
<path d="M521 2384 c-169 -45 -301 -180 -346 -351 -23 -86 -22 -1421 0 -1508
47 -178 197 -321 374 -355 72 -13 1389 -14 1462 0 183 34 344 195 379 379 14
73 14 1389 0 1462 -34 177 -177 327 -355 374 -85 22 -1431 21 -1514 -1z m1485
-330 c15 -11 37 -33 48 -48 21 -27 21 -36 21 -726 0 -690 0 -699 -21 -726 -11
-15 -33 -37 -48 -48 -27 -21 -36 -21 -726 -21 -690 0 -699 0 -726 21 -15 11
-37 33 -48 48 -21 27 -21 39 -24 699 -2 370 0 686 3 704 7 40 49 91 90 109 24
11 161 13 717 11 676 -2 687 -2 714 -23z"/>
<path d="M3081 2384 c-169 -45 -301 -180 -346 -351 -23 -86 -22 -1421 0 -1508
47 -178 197 -321 374 -355 72 -13 1389 -14 1462 0 183 34 344 195 379 379 14
73 14 1389 0 1462 -34 177 -177 327 -355 374 -85 22 -1431 21 -1514 -1z m1485
-330 c15 -11 37 -33 48 -48 21 -27 21 -36 21 -726 0 -690 0 -699 -21 -726 -11
-15 -33 -37 -48 -48 -27 -21 -36 -21 -726 -21 -690 0 -699 0 -726 21 -15 11
-37 33 -48 48 -21 27 -21 39 -24 699 -2 370 0 686 3 704 7 40 49 91 90 109 24
11 161 13 717 11 676 -2 687 -2 714 -23z"/>
</g>
</svg>
