<?xml version="1.0" standalone="no"?>
<!DOCTYPE svg PUBLIC "-//W3C//DTD SVG 20010904//EN"
 "http://www.w3.org/TR/2001/REC-SVG-20010904/DTD/svg10.dtd">
<svg version="1.0" xmlns="http://www.w3.org/2000/svg"
 width="416.000000pt" height="301.000000pt" viewBox="0 0 416.000000 301.000000"
 preserveAspectRatio="xMidYMid meet">

<g transform="translate(0.000000,301.000000) scale(0.100000,-0.100000)"
fill="#000000" stroke="none">
<path d="M3356 2730 c-24 -37 -30 -40 -71 -40 -56 0 -64 -14 -35 -64 l22 -36
-22 -36 c-29 -50 -21 -64 35 -64 41 0 47 -3 71 -40 15 -22 33 -40 40 -40 8 0
25 18 39 40 23 37 29 40 70 40 56 0 65 16 35 65 l-22 35 22 35 c30 49 21 65
-35 65 -41 0 -47 3 -71 40 -15 22 -32 40 -39 40 -7 0 -24 -18 -39 -40z"/>
<path d="M2136 2490 c-24 -37 -30 -40 -71 -40 -56 0 -64 -14 -35 -64 l22 -36
-22 -36 c-29 -50 -21 -64 35 -64 41 0 47 -3 71 -40 15 -22 33 -40 40 -40 8 0
25 18 39 40 23 37 29 40 70 40 56 0 65 16 35 65 l-22 35 22 35 c30 49 21 65
-35 65 -41 0 -47 3 -71 40 -15 22 -32 40 -39 40 -7 0 -24 -18 -39 -40z"/>
<path d="M1656 1640 c-24 -37 -30 -40 -71 -40 -56 0 -64 -14 -35 -64 l22 -36
-22 -36 c-29 -50 -21 -64 35 -64 41 0 47 -3 71 -40 15 -22 33 -40 40 -40 8 0
25 18 39 40 23 37 29 40 70 40 56 0 65 16 35 65 l-22 35 22 35 c30 49 21 65
-35 65 -41 0 -47 3 -71 40 -15 22 -32 40 -39 40 -7 0 -24 -18 -39 -40z"/>
<path d="M2606 1630 c-24 -37 -30 -40 -71 -40 -56 0 -64 -14 -35 -64 l22 -36
-22 -36 c-29 -50 -21 -64 35 -64 41 0 47 -3 71 -40 15 -22 33 -40 40 -40 8 0
25 18 39 40 23 37 29 40 70 40 56 0 65 16 35 65 l-22 35 22 35 c30 49 21 65
-35 65 -41 0 -47 3 -71 40 -15 22 -32 40 -39 40 -7 0 -24 -18 -39 -40z"/>
<path d="M636 1040 c-24 -37 -30 -40 -71 -40 -56 0 -64 -14 -35 -64 l22 -36
-22 -36 c-29 -50 -21 -64 35 -64 41 0 47 -3 71 -40 15 -22 33 -40 40 -40 8 0
25 18 39 40 23 37 29 40 70 40 56 0 65 16 35 65 l-22 35 22 35 c30 49 21 65
-35 65 -41 0 -47 3 -71 40 -15 22 -32 40 -39 40 -7 0 -24 -18 -39 -40z"/>
</g>
</svg>
