<?xml version="1.0" standalone="no"?>
<!DOCTYPE svg PUBLIC "-//W3C//DTD SVG 20010904//EN"
 "http://www.w3.org/TR/2001/REC-SVG-20010904/DTD/svg10.dtd">
<svg version="1.0" xmlns="http://www.w3.org/2000/svg"
 width="500.000000pt" height="500.000000pt" viewBox="0 0 500.000000 500.000000"
 preserveAspectRatio="xMidYMid meet">

<g transform="translate(0.000000,500.000000) scale(0.100000,-0.100000)"
fill="#000000" stroke="none">
<path d="M1760 3604 c-293 -53 -518 -266 -581 -551 -8 -33 -13 -116 -12 -193
1 -110 6 -153 27 -233 66 -256 245 -526 551 -832 269 -270 682 -595 755 -595
86 0 602 420 853 695 271 296 414 538 467 790 7 33 13 119 14 190 0 156 -14
220 -81 355 -38 77 -61 109 -127 176 -146 146 -327 212 -546 201 -202 -10
-339 -76 -507 -247 -33 -33 -66 -60 -73 -60 -7 0 -49 36 -94 80 -168 165 -290
220 -501 225 -66 2 -131 2 -145 -1z m319 -189 c105 -25 209 -87 317 -186 52
-49 100 -89 105 -89 6 0 47 35 92 78 95 90 124 111 204 151 86 43 168 61 275
61 168 0 298 -50 410 -158 233 -224 223 -602 -25 -972 -153 -228 -464 -534
-779 -768 -131 -98 -163 -115 -192 -108 -65 16 -423 304 -620 500 -341 337
-495 607 -512 896 -14 228 91 435 271 535 124 70 309 94 454 60z"/>
</g>
</svg>
