<?xml version="1.0" standalone="no"?>
<!DOCTYPE svg PUBLIC "-//W3C//DTD SVG 20010904//EN"
 "http://www.w3.org/TR/2001/REC-SVG-20010904/DTD/svg10.dtd">
<svg version="1.0" xmlns="http://www.w3.org/2000/svg"
 width="512.000000pt" height="512.000000pt" viewBox="0 0 512.000000 512.000000"
 preserveAspectRatio="xMidYMid meet">

<g transform="translate(0.000000,512.000000) scale(0.100000,-0.100000)"
fill="#000000" stroke="none">
<path d="M1341 4839 c-315 -62 -568 -314 -633 -629 -19 -96 -19 -3204 0 -3300
60 -290 271 -520 562 -612 l75 -23 1215 0 1215 0 75 23 c288 90 502 324 562
612 19 96 19 3204 0 3300 -59 287 -264 512 -557 611 l-70 24 -1200 2 c-660 0
-1220 -3 -1244 -8z m209 -577 c0 -299 5 -334 63 -419 45 -65 119 -119 196
-143 60 -19 93 -20 751 -20 658 0 691 1 751 20 77 24 151 78 196 143 58 85 63
120 63 419 l0 268 63 0 c132 -1 232 -43 328 -139 77 -77 122 -163 138 -261 15
-90 15 -3050 0 -3140 -29 -183 -183 -349 -360 -389 -59 -14 -2298 -14 -2356
-1 -178 41 -333 207 -362 390 -15 90 -15 3050 0 3140 16 98 61 184 138 261 95
94 195 137 324 138 l67 1 0 -268z m1700 19 c0 -214 -2 -252 -16 -265 -14 -14
-88 -16 -670 -16 -433 0 -662 4 -675 10 -18 10 -19 24 -19 265 l0 255 690 0
690 0 0 -249z"/>
<path d="M2659 2927 c-81 -42 -92 -69 -228 -550 -69 -240 -127 -437 -130 -437
-4 0 -32 52 -65 116 -69 137 -99 174 -168 208 -50 25 -59 26 -232 26 -162 0
-184 -2 -213 -20 -81 -49 -101 -159 -42 -234 39 -50 74 -60 214 -66 l130 -5
106 -208 c59 -114 117 -219 130 -233 35 -38 94 -65 154 -71 43 -5 63 -1 108
20 93 43 100 57 222 484 59 208 110 384 114 391 4 7 17 -32 30 -85 29 -119 58
-179 107 -223 71 -62 86 -65 334 -65 209 0 227 1 260 21 57 33 83 79 78 142
-5 59 -27 95 -78 130 -31 21 -43 22 -206 22 l-173 0 -10 38 c-6 20 -33 129
-61 242 -61 245 -66 261 -102 304 -62 76 -189 100 -279 53z"/>
</g>
</svg>
