<?xml version="1.0" standalone="no"?>
<!DOCTYPE svg PUBLIC "-//W3C//DTD SVG 20010904//EN"
 "http://www.w3.org/TR/2001/REC-SVG-20010904/DTD/svg10.dtd">
<svg version="1.0" xmlns="http://www.w3.org/2000/svg"
 width="512.000000pt" height="512.000000pt" viewBox="0 0 512.000000 512.000000"
 preserveAspectRatio="xMidYMid meet">

<g transform="translate(0.000000,512.000000) scale(0.100000,-0.100000)"
fill="#000000" stroke="none">
<path d="M2335 4786 c-94 -41 -124 -168 -59 -246 44 -52 56 -55 256 -60 l188
-5 -86 -75 c-607 -528 -1319 -903 -2079 -1096 -139 -35 -153 -40 -187 -76 -64
-65 -64 -150 0 -217 57 -60 87 -62 267 -17 804 203 1588 617 2214 1170 41 36
76 64 78 62 2 -2 -9 -52 -23 -112 -33 -134 -29 -171 25 -225 64 -65 153 -65
220 -1 38 37 38 37 126 392 96 387 98 401 48 461 -50 59 -51 59 -525 59 -337
-1 -440 -4 -463 -14z"/>
<path d="M3881 4464 c-169 -45 -301 -180 -346 -351 -23 -86 -23 -3340 0 -3426
45 -173 178 -307 350 -352 84 -21 466 -21 550 0 172 45 305 179 350 352 23 86
23 3340 0 3426 -45 173 -178 307 -350 352 -81 21 -475 20 -554 -1z m525 -330
c15 -11 37 -33 48 -48 l21 -27 0 -1659 0 -1659 -21 -27 c-51 -68 -53 -69 -294
-69 -241 0 -243 1 -294 69 -21 27 -21 29 -24 1659 -1 898 0 1646 3 1664 3 18
18 47 32 64 47 55 67 59 295 56 191 -2 209 -4 234 -23z"/>
<path d="M2281 3344 c-169 -45 -301 -180 -346 -351 -23 -87 -22 -2220 0 -2308
45 -172 179 -305 352 -350 81 -21 465 -21 546 0 173 45 307 178 352 350 22 88
23 2221 0 2308 -45 173 -178 307 -350 352 -81 21 -475 20 -554 -1z m525 -330
c15 -11 37 -33 48 -48 21 -27 21 -32 21 -1126 0 -1094 0 -1099 -21 -1126 -51
-68 -53 -69 -294 -69 -241 0 -243 1 -294 69 -21 27 -21 35 -24 1099 -1 590 0
1086 3 1104 3 18 18 47 32 64 47 55 67 59 295 56 191 -2 209 -4 234 -23z"/>
<path d="M681 2544 c-169 -45 -301 -180 -346 -351 -22 -85 -22 -1421 0 -1506
45 -173 178 -307 350 -352 84 -21 466 -21 550 0 172 45 305 179 350 352 22 85
22 1421 0 1506 -45 173 -178 307 -350 352 -81 21 -475 20 -554 -1z m525 -330
c15 -11 37 -33 48 -48 21 -27 21 -36 21 -726 0 -690 0 -699 -21 -726 -51 -68
-53 -69 -294 -69 -241 0 -243 1 -294 69 -21 27 -21 39 -24 699 -2 370 0 686 3
704 3 18 18 47 32 64 47 55 67 59 295 56 191 -2 209 -4 234 -23z"/>
</g>
</svg>
